<?xml version="1.0" encoding="UTF-8" standalone="no"?>
<!DOCTYPE svg PUBLIC "-//W3C//DTD SVG 1.1//EN"
 "http://www.w3.org/Graphics/SVG/1.1/DTD/svg11.dtd">
<!-- Generated by graphviz version 2.42.4 (0)
 -->
<!-- Title: codegen_flow Pages: 1 -->
<svg width="3499pt" height="2027pt"
 viewBox="0.00 0.00 3499.00 2027.00" xmlns="http://www.w3.org/2000/svg" xmlns:xlink="http://www.w3.org/1999/xlink">
<g id="graph0" class="graph" transform="scale(1 1) rotate(0) translate(4 2023)">
<title>codegen_flow</title>
<polygon fill="white" stroke="transparent" points="-4,4 -4,-2023 3495,-2023 3495,4 -4,4"/>
<g id="clust1" class="cluster">
<title>cluster_pipeline</title>
<polygon fill="#f8f8f0" stroke="black" stroke-width="2" points="106,-1646 106,-1966.5 416,-1966.5 416,-1646 106,-1646"/>
<text text-anchor="middle" x="137" y="-1952.9" font-family="Helvetica,sans-Serif" font-size="12.00">main.rs</text>
</g>
<g id="clust2" class="cluster">
<title>cluster_resolver</title>
<polygon fill="#f5e6f5" stroke="black" stroke-width="2" points="8,-1330 8,-1629 426,-1629 426,-1330 8,-1330"/>
<text text-anchor="middle" x="75.5" y="-1615.4" font-family="Helvetica,sans-Serif" font-size="12.00">resolver.rs — Pass 1</text>
</g>
<g id="clust3" class="cluster">
<title>cluster_ffi</title>
<polygon fill="#e6f3ff" stroke="black" stroke-width="2" points="434,-1000 434,-1416 1736,-1416 1736,-1000 434,-1000"/>
<text text-anchor="middle" x="539.5" y="-1402.4" font-family="Helvetica,sans-Serif" font-size="12.00">Step 1: &#160;codegen/rust.rs &#160;→ &#160;ffi.rs</text>
</g>
<g id="clust4" class="cluster">
<title>cluster_cpp</title>
<polygon fill="#fff0e6" stroke="black" stroke-width="2" points="1744,-691 1744,-1133 2636,-1133 2636,-691 1744,-691"/>
<text text-anchor="middle" x="1876" y="-1119.4" font-family="Helvetica,sans-Serif" font-size="12.00">Step 2: &#160;codegen/cpp.rs &#160;→ &#160;wrappers.hxx</text>
</g>
<g id="clust5" class="cluster">
<title>cluster_reexport</title>
<polygon fill="#e6ffe6" stroke="black" stroke-width="2" points="1503,-175 1503,-514 2573,-514 2573,-175 1503,-175"/>
<text text-anchor="middle" x="1688.5" y="-500.4" font-family="Helvetica,sans-Serif" font-size="12.00">Step 3: &#160;codegen/rust.rs &#160;→ &#160;per&#45;module *.rs (×79 modules)</text>
</g>
<g id="clust6" class="cluster">
<title>cluster_output</title>
<polygon fill="#f8f8f8" stroke="black" stroke-width="2" points="2268,-8 2268,-91 3483,-91 3483,-8 2268,-8"/>
<text text-anchor="middle" x="2409.5" y="-77.4" font-family="Helvetica,sans-Serif" font-size="12.00">Output: &#160;crates/opencascade&#45;sys/generated/</text>
</g>
<g id="clust7" class="cluster">
<title>cluster_legend</title>
<polygon fill="#ffffff" stroke="black" points="1696,-1848 1696,-2011 1982,-2011 1982,-1848 1696,-1848"/>
<text text-anchor="middle" x="1724" y="-1998.2" font-family="Helvetica,sans-Serif" font-size="11.00">Legend</text>
</g>
<!-- main -->
<g id="node1" class="node">
<title>main</title>
<path fill="#ffd700" stroke="black" d="M278.5,-1937.5C278.5,-1937.5 243.5,-1937.5 243.5,-1937.5 237.5,-1937.5 231.5,-1931.5 231.5,-1925.5 231.5,-1925.5 231.5,-1913.5 231.5,-1913.5 231.5,-1907.5 237.5,-1901.5 243.5,-1901.5 243.5,-1901.5 278.5,-1901.5 278.5,-1901.5 284.5,-1901.5 290.5,-1907.5 290.5,-1913.5 290.5,-1913.5 290.5,-1925.5 290.5,-1925.5 290.5,-1931.5 284.5,-1937.5 278.5,-1937.5"/>
<text text-anchor="middle" x="261" y="-1916.7" font-family="Helvetica,sans-Serif" font-size="11.00">main()</text>
</g>
<!-- resolve_deps -->
<g id="node2" class="node">
<title>resolve_deps</title>
<path fill="#fff8dc" stroke="black" d="M386,-1824C386,-1824 136,-1824 136,-1824 130,-1824 124,-1818 124,-1812 124,-1812 124,-1800 124,-1800 124,-1794 130,-1788 136,-1788 136,-1788 386,-1788 386,-1788 392,-1788 398,-1794 398,-1800 398,-1800 398,-1812 398,-1812 398,-1818 392,-1824 386,-1824"/>
<text text-anchor="middle" x="261" y="-1809.2" font-family="Helvetica,sans-Serif" font-size="11.00">header_deps::resolve_header_dependencies()</text>
<text text-anchor="middle" x="261" y="-1797.2" font-family="Helvetica,sans-Serif" font-size="11.00">262 explicit → 378 headers</text>
</g>
<!-- main&#45;&gt;resolve_deps -->
<g id="edge1" class="edge">
<title>main&#45;&gt;resolve_deps</title>
<path fill="none" stroke="black" d="M261,-1901.08C261,-1883.24 261,-1855.26 261,-1834.44"/>
<polygon fill="black" stroke="black" points="264.5,-1834.3 261,-1824.3 257.5,-1834.3 264.5,-1834.3"/>
</g>
<!-- parse_headers -->
<g id="node3" class="node">
<title>parse_headers</title>
<path fill="#ffe4b5" stroke="black" d="M395.5,-1757C395.5,-1757 126.5,-1757 126.5,-1757 120.5,-1757 114.5,-1751 114.5,-1745 114.5,-1745 114.5,-1733 114.5,-1733 114.5,-1727 120.5,-1721 126.5,-1721 126.5,-1721 395.5,-1721 395.5,-1721 401.5,-1721 407.5,-1727 407.5,-1733 407.5,-1733 407.5,-1745 407.5,-1745 407.5,-1751 401.5,-1757 395.5,-1757"/>
<text text-anchor="middle" x="261" y="-1736.2" font-family="Helvetica,sans-Serif" font-size="11.00">parser::parse_headers() &#160;→ &#160;Vec&lt;ParsedHeader&gt;</text>
</g>
<!-- resolve_deps&#45;&gt;parse_headers -->
<g id="edge2" class="edge">
<title>resolve_deps&#45;&gt;parse_headers</title>
<path fill="none" stroke="black" d="M261,-1787.92C261,-1781.7 261,-1774.5 261,-1767.6"/>
<polygon fill="black" stroke="black" points="264.5,-1767.19 261,-1757.19 257.5,-1767.19 264.5,-1767.19"/>
</g>
<!-- build_graph -->
<g id="node4" class="node">
<title>build_graph</title>
<path fill="#ffe4b5" stroke="black" d="M386.5,-1690C386.5,-1690 135.5,-1690 135.5,-1690 129.5,-1690 123.5,-1684 123.5,-1678 123.5,-1678 123.5,-1666 123.5,-1666 123.5,-1660 129.5,-1654 135.5,-1654 135.5,-1654 386.5,-1654 386.5,-1654 392.5,-1654 398.5,-1660 398.5,-1666 398.5,-1666 398.5,-1678 398.5,-1678 398.5,-1684 392.5,-1690 386.5,-1690"/>
<text text-anchor="middle" x="261" y="-1669.2" font-family="Helvetica,sans-Serif" font-size="11.00">ModuleGraph::from_headers() &#160;→ &#160;79 modules</text>
</g>
<!-- parse_headers&#45;&gt;build_graph -->
<g id="edge3" class="edge">
<title>parse_headers&#45;&gt;build_graph</title>
<path fill="none" stroke="black" d="M261,-1720.92C261,-1714.7 261,-1707.5 261,-1700.6"/>
<polygon fill="black" stroke="black" points="264.5,-1700.19 261,-1690.19 257.5,-1700.19 264.5,-1700.19"/>
</g>
<!-- build_symtab -->
<g id="node5" class="node">
<title>build_symtab</title>
<path fill="#dda0dd" stroke="black" stroke-width="2" d="M390.5,-1600C390.5,-1600 131.5,-1600 131.5,-1600 125.5,-1600 119.5,-1594 119.5,-1588 119.5,-1588 119.5,-1576 119.5,-1576 119.5,-1570 125.5,-1564 131.5,-1564 131.5,-1564 390.5,-1564 390.5,-1564 396.5,-1564 402.5,-1570 402.5,-1576 402.5,-1576 402.5,-1588 402.5,-1588 402.5,-1594 396.5,-1600 390.5,-1600"/>
<text text-anchor="middle" x="261" y="-1585.2" font-family="Helvetica,sans-Serif" font-size="11.00">build_symbol_table() &#160;→ &#160;SymbolTable</text>
<text text-anchor="middle" x="261" y="-1573.2" font-family="Helvetica,sans-Serif" font-size="11.00">(single source of truth for all binding decisions)</text>
</g>
<!-- build_graph&#45;&gt;build_symtab -->
<g id="edge6" class="edge">
<title>build_graph&#45;&gt;build_symtab</title>
<path fill="none" stroke="black" d="M261,-1653.61C261,-1641.24 261,-1624.37 261,-1610.22"/>
<polygon fill="black" stroke="black" points="264.5,-1610.05 261,-1600.05 257.5,-1610.05 264.5,-1610.05"/>
</g>
<!-- resolve_items -->
<g id="node6" class="node">
<title>resolve_items</title>
<path fill="#e6cce6" stroke="black" d="M406,-1533C406,-1533 28,-1533 28,-1533 22,-1533 16,-1527 16,-1521 16,-1521 16,-1461 16,-1461 16,-1455 22,-1449 28,-1449 28,-1449 406,-1449 406,-1449 412,-1449 418,-1455 418,-1461 418,-1461 418,-1521 418,-1521 418,-1527 412,-1533 406,-1533"/>
<text text-anchor="start" x="31" y="-1516.2" font-family="Helvetica,sans-Serif" font-weight="bold" font-size="11.00">For each class:</text>
<text text-anchor="start" x="124" y="-1516.2" font-family="Helvetica,sans-Serif" font-size="11.00"> &#160;resolve_class(), resolve_constructor(),</text>
<text text-anchor="start" x="31" y="-1497.2" font-family="Helvetica,sans-Serif" font-size="11.00"> &#160;resolve_method(), resolve_static_method()</text>
<text text-anchor="start" x="31" y="-1480.2" font-family="Helvetica,sans-Serif" font-weight="bold" font-size="11.00">For each enum:</text>
<text text-anchor="start" x="126" y="-1480.2" font-family="Helvetica,sans-Serif" font-size="11.00"> &#160;resolve_enum() (all EXCLUDED — CXX limitation)</text>
<text text-anchor="start" x="31" y="-1462.2" font-family="Helvetica,sans-Serif" font-weight="bold" font-size="11.00">For each function:</text>
<text text-anchor="start" x="143" y="-1462.2" font-family="Helvetica,sans-Serif" font-size="11.00"> &#160;resolve_function()</text>
</g>
<!-- build_symtab&#45;&gt;resolve_items -->
<g id="edge4" class="edge">
<title>build_symtab&#45;&gt;resolve_items</title>
<path fill="none" stroke="gray" stroke-dasharray="5,2" d="M252.52,-1563.84C249.39,-1557.52 245.68,-1550.01 241.84,-1542.25"/>
<polygon fill="gray" stroke="gray" points="244.89,-1540.51 237.32,-1533.1 238.61,-1543.61 244.89,-1540.51"/>
</g>
<!-- dispatch -->
<g id="node8" class="node">
<title>dispatch</title>
<path fill="#e0e0e0" stroke="black" stroke-width="2" d="M2139.5,-1509C2139.5,-1509 1948.5,-1509 1948.5,-1509 1942.5,-1509 1936.5,-1503 1936.5,-1497 1936.5,-1497 1936.5,-1485 1936.5,-1485 1936.5,-1479 1942.5,-1473 1948.5,-1473 1948.5,-1473 2139.5,-1473 2139.5,-1473 2145.5,-1473 2151.5,-1479 2151.5,-1485 2151.5,-1485 2151.5,-1497 2151.5,-1497 2151.5,-1503 2145.5,-1509 2139.5,-1509"/>
<text text-anchor="middle" x="2044" y="-1494.2" font-family="Helvetica,sans-Serif" font-size="11.00">generate_unified() &#160;(main.rs)</text>
<text text-anchor="middle" x="2044" y="-1482.2" font-family="Helvetica,sans-Serif" font-size="11.00">collections::all_known_collections()</text>
</g>
<!-- build_symtab&#45;&gt;dispatch -->
<g id="edge7" class="edge">
<title>build_symtab&#45;&gt;dispatch</title>
<path fill="none" stroke="black" d="M402.77,-1573.92C744.77,-1556.85 1610.12,-1513.66 1926.14,-1497.88"/>
<polygon fill="black" stroke="black" points="1926.42,-1501.37 1936.24,-1497.38 1926.07,-1494.38 1926.42,-1501.37"/>
</g>
<!-- filters -->
<g id="node7" class="node">
<title>filters</title>
<polygon fill="#ffe4e1" stroke="black" points="405.5,-1400 22.5,-1400 22.5,-1338 411.5,-1338 411.5,-1394 405.5,-1400"/>
<polyline fill="none" stroke="black" points="405.5,-1400 405.5,-1394 "/>
<polyline fill="none" stroke="black" points="411.5,-1394 405.5,-1394 "/>
<text text-anchor="start" x="37" y="-1384.2" font-family="Helvetica,sans-Serif" font-weight="bold" font-size="11.00">Exclusion Filters:</text>
<text text-anchor="start" x="143" y="-1384.2" font-family="Helvetica,sans-Serif" font-size="11.00"> method_uses_enum · needs_explicit_lifetimes</text>
<text text-anchor="start" x="37" y="-1366.2" font-family="Helvetica,sans-Serif" font-size="11.00">const_mut_return_mismatch · unsupported_by_value_params</text>
<text text-anchor="start" x="37" y="-1349.2" font-family="Helvetica,sans-Serif" font-size="11.00">is_abstract · protected destructor · has_unbindable_types</text>
</g>
<!-- resolve_items&#45;&gt;filters -->
<g id="edge5" class="edge">
<title>resolve_items&#45;&gt;filters</title>
<path fill="none" stroke="gray" stroke-dasharray="5,2" d="M217,-1448.7C217,-1436.2 217,-1422.5 217,-1410.08"/>
<polygon fill="gray" stroke="gray" points="220.5,-1410.01 217,-1400.01 213.5,-1410.01 220.5,-1410.01"/>
</g>
<!-- gen_ffi -->
<g id="node9" class="node">
<title>gen_ffi</title>
<path fill="#87ceeb" stroke="black" stroke-width="2" d="M1334.5,-1387C1334.5,-1387 1219.5,-1387 1219.5,-1387 1213.5,-1387 1207.5,-1381 1207.5,-1375 1207.5,-1375 1207.5,-1363 1207.5,-1363 1207.5,-1357 1213.5,-1351 1219.5,-1351 1219.5,-1351 1334.5,-1351 1334.5,-1351 1340.5,-1351 1346.5,-1357 1346.5,-1363 1346.5,-1363 1346.5,-1375 1346.5,-1375 1346.5,-1381 1340.5,-1387 1334.5,-1387"/>
<text text-anchor="middle" x="1277" y="-1366.2" font-family="Helvetica,sans-Serif" font-size="11.00">generate_unified_ffi()</text>
</g>
<!-- dispatch&#45;&gt;gen_ffi -->
<g id="edge12" class="edge">
<title>dispatch&#45;&gt;gen_ffi</title>
<path fill="none" stroke="#4169e1" d="M1936.14,-1473.12C1780.16,-1448.72 1495.17,-1404.13 1356.72,-1382.47"/>
<polygon fill="#4169e1" stroke="#4169e1" points="1357.03,-1378.98 1346.61,-1380.89 1355.95,-1385.89 1357.03,-1378.98"/>
<text text-anchor="middle" x="1704.5" y="-1426.8" font-family="Helvetica,sans-Serif" font-size="9.00" fill="#4169e1"> &#160;Step 1 &#160;</text>
</g>
<!-- gen_cpp -->
<g id="node14" class="node">
<title>gen_cpp</title>
<path fill="#ffa07a" stroke="black" stroke-width="2" d="M2121.5,-1104C2121.5,-1104 1966.5,-1104 1966.5,-1104 1960.5,-1104 1954.5,-1098 1954.5,-1092 1954.5,-1092 1954.5,-1080 1954.5,-1080 1954.5,-1074 1960.5,-1068 1966.5,-1068 1966.5,-1068 2121.5,-1068 2121.5,-1068 2127.5,-1068 2133.5,-1074 2133.5,-1080 2133.5,-1080 2133.5,-1092 2133.5,-1092 2133.5,-1098 2127.5,-1104 2121.5,-1104"/>
<text text-anchor="middle" x="2044" y="-1083.2" font-family="Helvetica,sans-Serif" font-size="11.00">generate_unified_wrappers()</text>
</g>
<!-- dispatch&#45;&gt;gen_cpp -->
<g id="edge18" class="edge">
<title>dispatch&#45;&gt;gen_cpp</title>
<path fill="none" stroke="#cd5c5c" d="M2044,-1472.94C2044,-1410.26 2044,-1192.27 2044,-1114.68"/>
<polygon fill="#cd5c5c" stroke="#cd5c5c" points="2047.5,-1114.29 2044,-1104.29 2040.5,-1114.29 2047.5,-1114.29"/>
<text text-anchor="middle" x="2065.5" y="-1314.8" font-family="Helvetica,sans-Serif" font-size="9.00" fill="#cd5c5c"> &#160;Step 2 &#160;</text>
</g>
<!-- gen_reexports -->
<g id="node20" class="node">
<title>gen_reexports</title>
<path fill="#90ee90" stroke="black" stroke-width="2" d="M2346,-485C2346,-485 2040,-485 2040,-485 2034,-485 2028,-479 2028,-473 2028,-473 2028,-461 2028,-461 2028,-455 2034,-449 2040,-449 2040,-449 2346,-449 2346,-449 2352,-449 2358,-455 2358,-461 2358,-461 2358,-473 2358,-473 2358,-479 2352,-485 2346,-485"/>
<text text-anchor="middle" x="2193" y="-464.2" font-family="Helvetica,sans-Serif" font-size="11.00">generate_module_reexports() &#160;(called once per module)</text>
</g>
<!-- dispatch&#45;&gt;gen_reexports -->
<g id="edge25" class="edge">
<title>dispatch&#45;&gt;gen_reexports</title>
<path fill="none" stroke="#228b22" d="M2151.65,-1490.84C2328.71,-1489.3 2662,-1472.74 2662,-1370 2662,-1370 2662,-1370 2662,-601.5 2662,-538.06 2501.25,-503.14 2367.97,-485.1"/>
<polygon fill="#228b22" stroke="#228b22" points="2368.4,-481.62 2358.02,-483.78 2367.47,-488.56 2368.4,-481.62"/>
<text text-anchor="middle" x="2683.5" y="-984.8" font-family="Helvetica,sans-Serif" font-size="9.00" fill="#228b22"> &#160;Step 3 &#160;</text>
</g>
<!-- gen_lib -->
<g id="node25" class="node">
<title>gen_lib</title>
<path fill="#d3d3d3" stroke="black" d="M2931,-270C2931,-270 2593,-270 2593,-270 2587,-270 2581,-264 2581,-258 2581,-258 2581,-246 2581,-246 2581,-240 2587,-234 2593,-234 2593,-234 2931,-234 2931,-234 2937,-234 2943,-240 2943,-246 2943,-246 2943,-258 2943,-258 2943,-264 2937,-270 2931,-270"/>
<text text-anchor="middle" x="2762" y="-255.2" font-family="Helvetica,sans-Serif" font-size="11.00">Step 4: &#160;generate_unified_lib_rs() &#160;→ &#160;lib.rs</text>
<text text-anchor="middle" x="2762" y="-243.2" font-family="Helvetica,sans-Serif" font-size="11.00">pub(crate) mod ffi; &#160;pub mod gp; &#160;pub mod topo_ds; &#160;... (×79)</text>
</g>
<!-- dispatch&#45;&gt;gen_lib -->
<g id="edge27" class="edge">
<title>dispatch&#45;&gt;gen_lib</title>
<path fill="none" stroke="black" d="M2151.5,-1484.56C2295.09,-1476.45 2541.44,-1459.39 2628,-1434 2660.45,-1424.48 2748,-1384.15 2748,-1370 2748,-1370 2748,-1370 2748,-384 2748,-348.02 2753.29,-306.79 2757.36,-280.35"/>
<polygon fill="black" stroke="black" points="2760.84,-280.74 2758.96,-270.31 2753.93,-279.64 2760.84,-280.74"/>
<text text-anchor="middle" x="2769.5" y="-908.8" font-family="Helvetica,sans-Serif" font-size="9.00"> &#160;Step 4 &#160;</text>
</g>
<!-- ffi_top -->
<g id="node10" class="node">
<title>ffi_top</title>
<path fill="#b0d4f1" stroke="black" d="M879.5,-1297C879.5,-1297 454.5,-1297 454.5,-1297 448.5,-1297 442.5,-1291 442.5,-1285 442.5,-1285 442.5,-1207 442.5,-1207 442.5,-1201 448.5,-1195 454.5,-1195 454.5,-1195 879.5,-1195 879.5,-1195 885.5,-1195 891.5,-1201 891.5,-1207 891.5,-1207 891.5,-1285 891.5,-1285 891.5,-1291 885.5,-1297 879.5,-1297"/>
<text text-anchor="start" x="458" y="-1280.2" font-family="Helvetica,sans-Serif" font-weight="bold" font-size="11.00">Top&#45;level items:</text>
<text text-anchor="start" x="458" y="-1261.2" font-family="Helvetica,sans-Serif" font-size="11.00"> &#160;generate_unified_handle_declarations() — typedef handle&lt;T&gt; HandleT</text>
<text text-anchor="start" x="458" y="-1243.2" font-family="Helvetica,sans-Serif" font-size="11.00"> &#160;generate_unified_opaque_declarations() — referenced but undefined types</text>
<text text-anchor="start" x="458" y="-1225.2" font-family="Helvetica,sans-Serif" font-size="11.00"> &#160;generate_unified_functions() — namespace&#45;level free functions</text>
<text text-anchor="start" x="458" y="-1207.2" font-family="Helvetica,sans-Serif" font-size="11.00"> &#160;generate_unified_unique_ptr_impls() — extern C++ impl blocks</text>
</g>
<!-- gen_ffi&#45;&gt;ffi_top -->
<g id="edge8" class="edge">
<title>gen_ffi&#45;&gt;ffi_top</title>
<path fill="none" stroke="black" d="M1207.26,-1355.35C1133.84,-1341.91 1014.63,-1319.76 901.64,-1297.12"/>
<polygon fill="black" stroke="black" points="902.27,-1293.67 891.77,-1295.14 900.89,-1300.54 902.27,-1293.67"/>
</g>
<!-- ffi_class -->
<g id="node11" class="node">
<title>ffi_class</title>
<path fill="#b0d4f1" stroke="black" d="M1214,-1264C1214,-1264 922,-1264 922,-1264 916,-1264 910,-1258 910,-1252 910,-1252 910,-1240 910,-1240 910,-1234 916,-1228 922,-1228 922,-1228 1214,-1228 1214,-1228 1220,-1228 1226,-1234 1226,-1240 1226,-1240 1226,-1252 1226,-1252 1226,-1258 1220,-1264 1214,-1264"/>
<text text-anchor="middle" x="1068" y="-1243.2" font-family="Helvetica,sans-Serif" font-size="11.00">generate_unified_class() &#160;(per class, full C++ names)</text>
</g>
<!-- gen_ffi&#45;&gt;ffi_class -->
<g id="edge9" class="edge">
<title>gen_ffi&#45;&gt;ffi_class</title>
<path fill="none" stroke="black" d="M1247.5,-1350.92C1210.57,-1329.54 1147.24,-1292.87 1106.52,-1269.3"/>
<polygon fill="black" stroke="black" points="1108.1,-1266.17 1097.69,-1264.19 1104.59,-1272.23 1108.1,-1266.17"/>
</g>
<!-- ffi_coll -->
<g id="node13" class="node">
<title>ffi_coll</title>
<path fill="#ffffb0" stroke="black" d="M1715.5,-1264C1715.5,-1264 1256.5,-1264 1256.5,-1264 1250.5,-1264 1244.5,-1258 1244.5,-1252 1244.5,-1252 1244.5,-1240 1244.5,-1240 1244.5,-1234 1250.5,-1228 1256.5,-1228 1256.5,-1228 1715.5,-1228 1715.5,-1228 1721.5,-1228 1727.5,-1234 1727.5,-1240 1727.5,-1240 1727.5,-1252 1727.5,-1252 1727.5,-1258 1721.5,-1264 1715.5,-1264"/>
<text text-anchor="middle" x="1486" y="-1249.2" font-family="Helvetica,sans-Serif" font-size="11.00">collections::generate_unified_rust_ffi_collections() &#160;(inserted into extern C++ block)</text>
<text text-anchor="middle" x="1486" y="-1237.2" font-family="Helvetica,sans-Serif" font-size="11.00">collections::generate_unified_rust_impl_collections() &#160;(appended after ffi module)</text>
</g>
<!-- gen_ffi&#45;&gt;ffi_coll -->
<g id="edge11" class="edge">
<title>gen_ffi&#45;&gt;ffi_coll</title>
<path fill="none" stroke="black" d="M1306.5,-1350.92C1343.43,-1329.54 1406.76,-1292.87 1447.48,-1269.3"/>
<polygon fill="black" stroke="black" points="1449.41,-1272.23 1456.31,-1264.19 1445.9,-1266.17 1449.41,-1272.23"/>
</g>
<!-- ffi_per_class -->
<g id="node12" class="node">
<title>ffi_per_class</title>
<path fill="#cce5ff" stroke="black" d="M1356.5,-1164C1356.5,-1164 779.5,-1164 779.5,-1164 773.5,-1164 767.5,-1158 767.5,-1152 767.5,-1152 767.5,-1020 767.5,-1020 767.5,-1014 773.5,-1008 779.5,-1008 779.5,-1008 1356.5,-1008 1356.5,-1008 1362.5,-1008 1368.5,-1014 1368.5,-1020 1368.5,-1020 1368.5,-1152 1368.5,-1152 1368.5,-1158 1362.5,-1164 1356.5,-1164"/>
<text text-anchor="start" x="783" y="-1147.2" font-family="Helvetica,sans-Serif" font-weight="bold" font-size="11.00">generate_unified_constructors()</text>
<text text-anchor="start" x="1018" y="-1146.2" font-family="Helvetica,sans-Serif" font-size="11.00">ClassName_ctor_suffix(...) → UniquePtr</text>
<text text-anchor="start" x="783" y="-1129.2" font-family="Helvetica,sans-Serif" font-weight="bold" font-size="11.00">generate_unified_methods()</text>
<text text-anchor="start" x="1018" y="-1128.2" font-family="Helvetica,sans-Serif" font-size="11.00">fn method(self: &amp;T) — direct CXX (primitives, const ref)</text>
<text text-anchor="start" x="783" y="-1111.2" font-family="Helvetica,sans-Serif" font-weight="bold" font-size="11.00">generate_unified_wrapper_methods()</text>
<text text-anchor="start" x="1018" y="-1111.2" font-family="Helvetica,sans-Serif" font-size="11.00">fn Cls_method(self_: &amp;T) → UniquePtr — </text>
<text text-anchor="start" x="1242" y="-1111.2" font-family="Helvetica,sans-Serif" font-style="italic" font-size="11.00">returns used_names</text>
<text text-anchor="start" x="783" y="-1093.2" font-family="Helvetica,sans-Serif" font-weight="bold" font-size="11.00">generate_unified_static_methods()</text>
<text text-anchor="start" x="1018" y="-1092.2" font-family="Helvetica,sans-Serif" font-size="11.00">fn Cls_Method(...) — checks used_names → _static suffix</text>
<text text-anchor="start" x="783" y="-1075.2" font-family="Helvetica,sans-Serif" font-weight="bold" font-size="11.00">generate_unified_upcast_methods()</text>
<text text-anchor="start" x="1018" y="-1074.2" font-family="Helvetica,sans-Serif" font-size="11.00">fn Derived_as_Base() → &amp;Base / Pin&lt;&amp;mut Base&gt;</text>
<text text-anchor="start" x="783" y="-1057.2" font-family="Helvetica,sans-Serif" font-weight="bold" font-size="11.00">generate_unified_to_owned()</text>
<text text-anchor="start" x="1018" y="-1056.2" font-family="Helvetica,sans-Serif" font-size="11.00">fn ClassName_to_owned() → UniquePtr</text>
<text text-anchor="start" x="783" y="-1039.2" font-family="Helvetica,sans-Serif" font-weight="bold" font-size="11.00">generate_unified_to_handle_ffi()</text>
<text text-anchor="start" x="1018" y="-1038.2" font-family="Helvetica,sans-Serif" font-size="11.00">fn Cls_to_handle() (Standard_Transient only)</text>
<text text-anchor="start" x="783" y="-1021.2" font-family="Helvetica,sans-Serif" font-weight="bold" font-size="11.00">generate_unified_handle_upcast_ffi()</text>
<text text-anchor="start" x="1018" y="-1020.2" font-family="Helvetica,sans-Serif" font-size="11.00">fn HandleDerived_as_HandleBase()</text>
</g>
<!-- ffi_class&#45;&gt;ffi_per_class -->
<g id="edge10" class="edge">
<title>ffi_class&#45;&gt;ffi_per_class</title>
<path fill="none" stroke="black" d="M1068,-1227.79C1068,-1214.39 1068,-1194.68 1068,-1174.22"/>
<polygon fill="black" stroke="black" points="1071.5,-1174.14 1068,-1164.14 1064.5,-1174.14 1071.5,-1174.14"/>
</g>
<!-- ffi_coll&#45;&gt;gen_cpp -->
<!-- cpp_top -->
<g id="node15" class="node">
<title>cpp_top</title>
<path fill="#ffd4b8" stroke="black" d="M2024,-967C2024,-967 1764,-967 1764,-967 1758,-967 1752,-961 1752,-955 1752,-955 1752,-943 1752,-943 1752,-937 1758,-931 1764,-931 1764,-931 2024,-931 2024,-931 2030,-931 2036,-937 2036,-943 2036,-943 2036,-955 2036,-955 2036,-961 2030,-967 2024,-967"/>
<text text-anchor="middle" x="1894" y="-952.2" font-family="Helvetica,sans-Serif" font-size="11.00">Handle typedefs: &#160;typedef handle&lt;T&gt; HandleT;</text>
<text text-anchor="middle" x="1894" y="-940.2" font-family="Helvetica,sans-Serif" font-size="11.00">generate_unified_function_wrappers()</text>
</g>
<!-- gen_cpp&#45;&gt;cpp_top -->
<g id="edge13" class="edge">
<title>gen_cpp&#45;&gt;cpp_top</title>
<path fill="none" stroke="black" d="M2025,-1067.9C1998.66,-1044.19 1950.91,-1001.22 1920.91,-974.22"/>
<polygon fill="black" stroke="black" points="1923.09,-971.47 1913.32,-967.39 1918.41,-976.68 1923.09,-971.47"/>
</g>
<!-- cpp_class -->
<g id="node16" class="node">
<title>cpp_class</title>
<path fill="#ffd4b8" stroke="black" d="M2320,-967C2320,-967 2066,-967 2066,-967 2060,-967 2054,-961 2054,-955 2054,-955 2054,-943 2054,-943 2054,-937 2060,-931 2066,-931 2066,-931 2320,-931 2320,-931 2326,-931 2332,-937 2332,-943 2332,-943 2332,-955 2332,-955 2332,-961 2326,-967 2320,-967"/>
<text text-anchor="middle" x="2193" y="-946.2" font-family="Helvetica,sans-Serif" font-size="11.00">generate_unified_class_wrappers() &#160;(per class)</text>
</g>
<!-- gen_cpp&#45;&gt;cpp_class -->
<g id="edge14" class="edge">
<title>gen_cpp&#45;&gt;cpp_class</title>
<path fill="none" stroke="black" d="M2062.87,-1067.9C2089.04,-1044.19 2136.47,-1001.22 2166.27,-974.22"/>
<polygon fill="black" stroke="black" points="2168.75,-976.69 2173.81,-967.39 2164.05,-971.51 2168.75,-976.69"/>
</g>
<!-- cpp_coll -->
<g id="node18" class="node">
<title>cpp_coll</title>
<path fill="#ffffb0" stroke="black" d="M2616,-967C2616,-967 2362,-967 2362,-967 2356,-967 2350,-961 2350,-955 2350,-955 2350,-943 2350,-943 2350,-937 2356,-931 2362,-931 2362,-931 2616,-931 2616,-931 2622,-931 2628,-937 2628,-943 2628,-943 2628,-955 2628,-955 2628,-961 2622,-967 2616,-967"/>
<text text-anchor="middle" x="2489" y="-952.2" font-family="Helvetica,sans-Serif" font-size="11.00">collections::generate_unified_cpp_collections()</text>
<text text-anchor="middle" x="2489" y="-940.2" font-family="Helvetica,sans-Serif" font-size="11.00">iterator structs + next() functions</text>
</g>
<!-- gen_cpp&#45;&gt;cpp_coll -->
<g id="edge16" class="edge">
<title>gen_cpp&#45;&gt;cpp_coll</title>
<path fill="none" stroke="black" d="M2100.36,-1067.9C2182.67,-1042.93 2335.45,-996.58 2422.93,-970.04"/>
<polygon fill="black" stroke="black" points="2424.19,-973.32 2432.75,-967.07 2422.16,-966.62 2424.19,-973.32"/>
</g>
<!-- cpp_per_class -->
<g id="node17" class="node">
<title>cpp_per_class</title>
<path fill="#ffe8d6" stroke="black" d="M2507.5,-891C2507.5,-891 1878.5,-891 1878.5,-891 1872.5,-891 1866.5,-885 1866.5,-879 1866.5,-879 1866.5,-711 1866.5,-711 1866.5,-705 1872.5,-699 1878.5,-699 1878.5,-699 2507.5,-699 2507.5,-699 2513.5,-699 2519.5,-705 2519.5,-711 2519.5,-711 2519.5,-879 2519.5,-879 2519.5,-885 2513.5,-891 2507.5,-891"/>
<text text-anchor="start" x="1882" y="-874.2" font-family="Helvetica,sans-Serif" font-weight="bold" font-size="11.00">generate_unified_constructor_wrappers()</text>
<text text-anchor="start" x="2177" y="-873.2" font-family="Helvetica,sans-Serif" font-size="11.00">make_unique&lt;T&gt;(...)</text>
<text text-anchor="start" x="1882" y="-856.2" font-family="Helvetica,sans-Serif" font-weight="bold" font-size="11.00">generate_unified_return_by_value_wrappers()</text>
<text text-anchor="start" x="2177" y="-856.2" font-family="Helvetica,sans-Serif" font-size="11.00">make_unique&lt;R&gt;(self.Method(...)) → </text>
<text text-anchor="start" x="2385" y="-856.2" font-family="Helvetica,sans-Serif" font-style="italic" font-size="11.00">returns used_names</text>
<text text-anchor="start" x="1882" y="-838.2" font-family="Helvetica,sans-Serif" font-weight="bold" font-size="11.00">generate_unified_c_string_param_wrappers()</text>
<text text-anchor="start" x="2177" y="-837.2" font-family="Helvetica,sans-Serif" font-size="11.00">rust::Str → std::string → c_str()</text>
<text text-anchor="start" x="1882" y="-820.2" font-family="Helvetica,sans-Serif" font-weight="bold" font-size="11.00">generate_unified_c_string_return_wrappers()</text>
<text text-anchor="start" x="2177" y="-819.2" font-family="Helvetica,sans-Serif" font-size="11.00">const char* → rust::String</text>
<text text-anchor="start" x="1882" y="-802.2" font-family="Helvetica,sans-Serif" font-weight="bold" font-size="11.00">generate_unified_static_method_wrappers()</text>
<text text-anchor="start" x="2177" y="-801.2" font-family="Helvetica,sans-Serif" font-size="11.00">Class::Method(...) — checks used_names</text>
<text text-anchor="start" x="1882" y="-784.2" font-family="Helvetica,sans-Serif" font-weight="bold" font-size="11.00">generate_unified_upcast_wrappers()</text>
<text text-anchor="start" x="2177" y="-783.2" font-family="Helvetica,sans-Serif" font-size="11.00">const Base&amp; / Base&amp; (implicit C++ cast)</text>
<text text-anchor="start" x="1882" y="-766.2" font-family="Helvetica,sans-Serif" font-weight="bold" font-size="11.00">generate_unified_to_owned_wrapper()</text>
<text text-anchor="start" x="2177" y="-765.2" font-family="Helvetica,sans-Serif" font-size="11.00">make_unique&lt;T&gt;(self)</text>
<text text-anchor="start" x="1882" y="-748.2" font-family="Helvetica,sans-Serif" font-weight="bold" font-size="11.00">generate_unified_to_handle_wrapper()</text>
<text text-anchor="start" x="2177" y="-747.2" font-family="Helvetica,sans-Serif" font-size="11.00">make_unique&lt;Handle&gt;(obj.release())</text>
<text text-anchor="start" x="1882" y="-730.2" font-family="Helvetica,sans-Serif" font-weight="bold" font-size="11.00">generate_unified_handle_upcast_wrappers()</text>
<text text-anchor="start" x="2177" y="-729.2" font-family="Helvetica,sans-Serif" font-size="11.00">Handle conversion wrappers</text>
<text text-anchor="start" x="1882" y="-712.2" font-family="Helvetica,sans-Serif" font-weight="bold" font-size="11.00">generate_unified_inherited_method_wrappers()</text>
<text text-anchor="start" x="2177" y="-711.2" font-family="Helvetica,sans-Serif" font-size="11.00">self.InheritedMethod(...) (avoids method pointer mismatch)</text>
</g>
<!-- cpp_class&#45;&gt;cpp_per_class -->
<g id="edge15" class="edge">
<title>cpp_class&#45;&gt;cpp_per_class</title>
<path fill="none" stroke="black" d="M2193,-930.86C2193,-922.87 2193,-912.65 2193,-901.42"/>
<polygon fill="black" stroke="black" points="2196.5,-901.31 2193,-891.31 2189.5,-901.31 2196.5,-901.31"/>
</g>
<!-- correspondence -->
<g id="node19" class="node">
<title>correspondence</title>
<path fill="lightgrey" stroke="transparent" d="M2573,-667C2573,-667 1813,-667 1813,-667 1807,-667 1801,-661 1801,-655 1801,-655 1801,-550 1801,-550 1801,-544 1807,-538 1813,-538 1813,-538 2573,-538 2573,-538 2579,-538 2585,-544 2585,-550 2585,-550 2585,-655 2585,-655 2585,-661 2579,-667 2573,-667"/>
<polygon fill="#f0f0ff" stroke="transparent" points="1812,-543 1812,-662 2574,-662 2574,-543 1812,-543"/>
<text text-anchor="start" x="1873" y="-647.7" font-family="Helvetica,sans-Serif" font-weight="bold" font-size="11.00">1:1 Correspondence: &#160;each ffi.rs wrapper declaration has a matching wrappers.hxx C++ implementation</text>
<text text-anchor="start" x="1875" y="-627.7" font-family="Helvetica,sans-Serif" font-size="11.00">Rust: fn Cls_ctor(...) → UniquePtr&lt;T&gt;</text>
<text text-anchor="start" x="2088" y="-627.7" font-family="Helvetica,sans-Serif" font-size="11.00"> &#160;↔ &#160;</text>
<text text-anchor="start" x="2120" y="-627.7" font-family="Helvetica,sans-Serif" font-size="11.00">C++: inline unique_ptr&lt;T&gt; Cls_ctor(...) { make_unique&lt;T&gt;(...) }</text>
<text text-anchor="start" x="1818" y="-608.7" font-family="Helvetica,sans-Serif" font-size="11.00">Rust: fn Cls_method(self_: &amp;T) → UniquePtr&lt;R&gt;</text>
<text text-anchor="start" x="2088" y="-608.7" font-family="Helvetica,sans-Serif" font-size="11.00"> &#160;↔ &#160;</text>
<text text-anchor="start" x="2120" y="-608.7" font-family="Helvetica,sans-Serif" font-size="11.00">C++: inline unique_ptr&lt;R&gt; Cls_method(const T&amp;) { make_unique&lt;R&gt;(self.M()) }</text>
<text text-anchor="start" x="1914" y="-589.7" font-family="Helvetica,sans-Serif" font-size="11.00">Rust: fn Cls_static_method(...)</text>
<text text-anchor="start" x="2088" y="-589.7" font-family="Helvetica,sans-Serif" font-size="11.00"> &#160;↔ &#160;</text>
<text text-anchor="start" x="2120" y="-589.7" font-family="Helvetica,sans-Serif" font-size="11.00">C++: inline ... Cls_static_method(...) { Class::Method(...) }</text>
<text text-anchor="start" x="1865" y="-570.7" font-family="Helvetica,sans-Serif" font-size="11.00">Rust: fn Derived_as_Base(&amp;T) → &amp;Base</text>
<text text-anchor="start" x="2088" y="-570.7" font-family="Helvetica,sans-Serif" font-size="11.00"> &#160;↔ &#160;</text>
<text text-anchor="start" x="2120" y="-570.7" font-family="Helvetica,sans-Serif" font-size="11.00">C++: inline const Base&amp; Derived_as_Base(const Derived&amp; s) { return s; }</text>
<text text-anchor="start" x="1818" y="-552.7" font-family="Helvetica,sans-Serif" font-style="italic" font-size="11.00">Note: direct CXX methods (self: &amp;T returning primitives/const ref) have NO C++ wrapper — CXX generates the glue</text>
<polygon fill="none" stroke="black" points="1812,-543 1812,-662 2574,-662 2574,-543 1812,-543"/>
</g>
<!-- cpp_per_class&#45;&gt;correspondence -->
<!-- correspondence&#45;&gt;gen_reexports -->
<!-- rx_reexport -->
<g id="node21" class="node">
<title>rx_reexport</title>
<path fill="#b0e0b0" stroke="black" d="M1979,-418C1979,-418 1523,-418 1523,-418 1517,-418 1511,-412 1511,-406 1511,-406 1511,-364 1511,-364 1511,-358 1517,-352 1523,-352 1523,-352 1979,-352 1979,-352 1985,-352 1991,-358 1991,-364 1991,-364 1991,-406 1991,-406 1991,-412 1985,-418 1979,-418"/>
<text text-anchor="start" x="1526" y="-401.2" font-family="Helvetica,sans-Serif" font-weight="bold" font-size="11.00">Type re&#45;exports:</text>
<text text-anchor="start" x="1627" y="-401.2" font-family="Helvetica,sans-Serif" font-size="11.00"> &#160;pub use crate::ffi::gp_Pnt as Pnt;</text>
<text text-anchor="start" x="1526" y="-383.2" font-family="Helvetica,sans-Serif" font-weight="bold" font-size="11.00">Function re&#45;exports:</text>
<text text-anchor="start" x="1651" y="-383.2" font-family="Helvetica,sans-Serif" font-size="11.00"> &#160;pub use crate::ffi::fn_name;</text>
<text text-anchor="start" x="1526" y="-365.2" font-family="Helvetica,sans-Serif" font-weight="bold" font-size="11.00">Collection re&#45;exports:</text>
<text text-anchor="start" x="1660" y="-365.2" font-family="Helvetica,sans-Serif" font-size="11.00"> &#160;pub use crate::ffi::TopTools_ListOfShape as ListOfShape;</text>
</g>
<!-- gen_reexports&#45;&gt;rx_reexport -->
<g id="edge20" class="edge">
<title>gen_reexports&#45;&gt;rx_reexport</title>
<path fill="none" stroke="black" d="M2098.99,-448.99C2052.01,-440.48 1993.43,-429.88 1937.81,-419.81"/>
<polygon fill="black" stroke="black" points="1938.29,-416.34 1927.83,-418 1937.04,-423.23 1938.29,-416.34"/>
</g>
<!-- rx_impl -->
<g id="node22" class="node">
<title>rx_impl</title>
<path fill="#b0e0b0" stroke="black" d="M2210.5,-403C2210.5,-403 2021.5,-403 2021.5,-403 2015.5,-403 2009.5,-397 2009.5,-391 2009.5,-391 2009.5,-379 2009.5,-379 2009.5,-373 2015.5,-367 2021.5,-367 2021.5,-367 2210.5,-367 2210.5,-367 2216.5,-367 2222.5,-373 2222.5,-379 2222.5,-379 2222.5,-391 2222.5,-391 2222.5,-397 2216.5,-403 2210.5,-403"/>
<text text-anchor="middle" x="2116" y="-382.2" font-family="Helvetica,sans-Serif" font-size="11.00">impl ShortName { ... } &#160;(per class)</text>
</g>
<!-- gen_reexports&#45;&gt;rx_impl -->
<g id="edge21" class="edge">
<title>gen_reexports&#45;&gt;rx_impl</title>
<path fill="none" stroke="black" d="M2176.29,-448.64C2165.52,-437.45 2151.36,-422.74 2139.47,-410.39"/>
<polygon fill="black" stroke="black" points="2141.87,-407.83 2132.41,-403.05 2136.82,-412.68 2141.87,-407.83"/>
</g>
<!-- rx_handle -->
<g id="node24" class="node">
<title>rx_handle</title>
<path fill="#b0e0b0" stroke="black" d="M2553.5,-403C2553.5,-403 2252.5,-403 2252.5,-403 2246.5,-403 2240.5,-397 2240.5,-391 2240.5,-391 2240.5,-379 2240.5,-379 2240.5,-373 2246.5,-367 2252.5,-367 2252.5,-367 2553.5,-367 2553.5,-367 2559.5,-367 2565.5,-373 2565.5,-379 2565.5,-379 2565.5,-391 2565.5,-391 2565.5,-397 2559.5,-403 2553.5,-403"/>
<text text-anchor="middle" x="2403" y="-382.2" font-family="Helvetica,sans-Serif" font-size="11.00">Handle impl blocks &#160;(upcast methods on Handle types)</text>
</g>
<!-- gen_reexports&#45;&gt;rx_handle -->
<g id="edge23" class="edge">
<title>gen_reexports&#45;&gt;rx_handle</title>
<path fill="none" stroke="black" d="M2237.79,-448.94C2270.27,-436.56 2314.37,-419.77 2348.83,-406.64"/>
<polygon fill="black" stroke="black" points="2350.18,-409.87 2358.28,-403.04 2347.69,-403.33 2350.18,-409.87"/>
</g>
<!-- rx_per_class -->
<g id="node23" class="node">
<title>rx_per_class</title>
<path fill="#d4f0d4" stroke="black" d="M2402.5,-321C2402.5,-321 1829.5,-321 1829.5,-321 1823.5,-321 1817.5,-315 1817.5,-309 1817.5,-309 1817.5,-195 1817.5,-195 1817.5,-189 1823.5,-183 1829.5,-183 1829.5,-183 2402.5,-183 2402.5,-183 2408.5,-183 2414.5,-189 2414.5,-195 2414.5,-195 2414.5,-309 2414.5,-309 2414.5,-315 2408.5,-321 2402.5,-321"/>
<text text-anchor="start" x="1833" y="-304.2" font-family="Helvetica,sans-Serif" font-weight="bold" font-size="11.00">Constructor wrappers</text>
<text text-anchor="start" x="2056" y="-303.2" font-family="Helvetica,sans-Serif" font-size="11.00">pub fn new_real3(...) → UniquePtr { ffi::Cls_ctor_real3(...) }</text>
<text text-anchor="start" x="1833" y="-286.2" font-family="Helvetica,sans-Serif" font-weight="bold" font-size="11.00">Upcast methods</text>
<text text-anchor="start" x="2056" y="-285.2" font-family="Helvetica,sans-Serif" font-size="11.00">pub fn as_base(&amp;self) → &amp;Base { ffi::Derived_as_Base(self) }</text>
<text text-anchor="start" x="1833" y="-268.2" font-family="Helvetica,sans-Serif" font-weight="bold" font-size="11.00">to_owned()</text>
<text text-anchor="start" x="2056" y="-267.2" font-family="Helvetica,sans-Serif" font-size="11.00">pub fn to_owned(&amp;self) → UniquePtr { ffi::Cls_to_owned(self) }</text>
<text text-anchor="start" x="1833" y="-250.2" font-family="Helvetica,sans-Serif" font-weight="bold" font-size="11.00">to_handle()</text>
<text text-anchor="start" x="2056" y="-249.2" font-family="Helvetica,sans-Serif" font-size="11.00">pub fn to_handle(obj: UniquePtr) → UniquePtr&lt;Handle&gt;</text>
<text text-anchor="start" x="1833" y="-232.2" font-family="Helvetica,sans-Serif" font-weight="bold" font-size="11.00">generate_wrapper_method_impls()</text>
<text text-anchor="start" x="2056" y="-231.2" font-family="Helvetica,sans-Serif" font-size="11.00">by&#45;value return + const char* method delegation</text>
<text text-anchor="start" x="1833" y="-214.2" font-family="Helvetica,sans-Serif" font-weight="bold" font-size="11.00">generate_static_method_impls()</text>
<text text-anchor="start" x="2056" y="-213.2" font-family="Helvetica,sans-Serif" font-size="11.00">associated functions delegating to ffi::Cls_Method(...)</text>
<text text-anchor="start" x="1833" y="-196.2" font-family="Helvetica,sans-Serif" font-weight="bold" font-size="11.00">generate_inherited_method_impls()</text>
<text text-anchor="start" x="2056" y="-195.2" font-family="Helvetica,sans-Serif" font-size="11.00">walk ancestor chain, emit non&#45;overridden inherited wrappers</text>
</g>
<!-- rx_impl&#45;&gt;rx_per_class -->
<g id="edge22" class="edge">
<title>rx_impl&#45;&gt;rx_per_class</title>
<path fill="none" stroke="black" d="M2116,-366.87C2116,-357.37 2116,-344.79 2116,-331.47"/>
<polygon fill="black" stroke="black" points="2119.5,-331.17 2116,-321.17 2112.5,-331.17 2119.5,-331.17"/>
</g>
<!-- rx_handle&#45;&gt;gen_lib -->
<!-- rustfmt -->
<g id="node26" class="node">
<title>rustfmt</title>
<path fill="#d3d3d3" stroke="black" d="M2926.5,-151C2926.5,-151 2597.5,-151 2597.5,-151 2591.5,-151 2585.5,-145 2585.5,-139 2585.5,-139 2585.5,-127 2585.5,-127 2585.5,-121 2591.5,-115 2597.5,-115 2597.5,-115 2926.5,-115 2926.5,-115 2932.5,-115 2938.5,-121 2938.5,-127 2938.5,-127 2938.5,-139 2938.5,-139 2938.5,-145 2932.5,-151 2926.5,-151"/>
<text text-anchor="middle" x="2762" y="-130.2" font-family="Helvetica,sans-Serif" font-size="11.00">Step 5: &#160;rustfmt +nightly &#160;+ &#160;postprocess_generated_code()</text>
</g>
<!-- gen_lib&#45;&gt;rustfmt -->
<g id="edge28" class="edge">
<title>gen_lib&#45;&gt;rustfmt</title>
<path fill="none" stroke="black" d="M2762,-233.99C2762,-214.92 2762,-183.75 2762,-161.28"/>
<polygon fill="black" stroke="black" points="2765.5,-161.03 2762,-151.03 2758.5,-161.03 2765.5,-161.03"/>
</g>
<!-- out_ffi -->
<g id="node27" class="node">
<title>out_ffi</title>
<polygon fill="#ffffff" stroke="black" points="2510,-62 2276,-62 2276,-16 2516,-16 2516,-56 2510,-62"/>
<polyline fill="none" stroke="black" points="2510,-62 2510,-56 "/>
<polyline fill="none" stroke="black" points="2516,-56 2510,-56 "/>
<text text-anchor="middle" x="2396" y="-48.2" font-family="Helvetica,sans-Serif" font-size="11.00">ffi.rs</text>
<text text-anchor="middle" x="2396" y="-36.2" font-family="Helvetica,sans-Serif" font-size="11.00">#[cxx::bridge] mod ffi { ... }</text>
<text text-anchor="middle" x="2396" y="-24.2" font-family="Helvetica,sans-Serif" font-size="11.00">~45K lines · 602 types · 6079 functions</text>
</g>
<!-- rustfmt&#45;&gt;out_ffi -->
<g id="edge29" class="edge">
<title>rustfmt&#45;&gt;out_ffi</title>
<path fill="none" stroke="#4169e1" stroke-width="2" d="M2635.16,-114.99C2599.21,-108.84 2560.28,-100.91 2525,-91 2501.37,-84.36 2476.11,-74.92 2454.26,-65.97"/>
<polygon fill="#4169e1" stroke="#4169e1" stroke-width="2" points="2455.38,-62.65 2444.8,-62.04 2452.69,-69.11 2455.38,-62.65"/>
</g>
<!-- out_cpp -->
<g id="node28" class="node">
<title>out_cpp</title>
<polygon fill="#ffffff" stroke="black" points="2830,-62 2534,-62 2534,-16 2836,-16 2836,-56 2830,-62"/>
<polyline fill="none" stroke="black" points="2830,-62 2830,-56 "/>
<polyline fill="none" stroke="black" points="2836,-56 2830,-56 "/>
<text text-anchor="middle" x="2685" y="-48.2" font-family="Helvetica,sans-Serif" font-size="11.00">wrappers.hxx</text>
<text text-anchor="middle" x="2685" y="-36.2" font-family="Helvetica,sans-Serif" font-size="11.00">#pragma once &#160;· &#160;#include &lt;*.hxx&gt; (560 headers)</text>
<text text-anchor="middle" x="2685" y="-24.2" font-family="Helvetica,sans-Serif" font-size="11.00">inline C++ wrapper functions</text>
</g>
<!-- rustfmt&#45;&gt;out_cpp -->
<g id="edge30" class="edge">
<title>rustfmt&#45;&gt;out_cpp</title>
<path fill="none" stroke="#cd5c5c" stroke-width="2" d="M2747.52,-114.7C2737,-102.13 2722.51,-84.82 2710.13,-70.03"/>
<polygon fill="#cd5c5c" stroke="#cd5c5c" stroke-width="2" points="2712.61,-67.53 2703.51,-62.11 2707.24,-72.03 2712.61,-67.53"/>
</g>
<!-- out_mod -->
<g id="node29" class="node">
<title>out_mod</title>
<polygon fill="#ffffff" stroke="black" points="3124,-57 2854,-57 2854,-21 3130,-21 3130,-51 3124,-57"/>
<polyline fill="none" stroke="black" points="3124,-57 3124,-51 "/>
<polyline fill="none" stroke="black" points="3130,-51 3124,-51 "/>
<text text-anchor="middle" x="2992" y="-42.2" font-family="Helvetica,sans-Serif" font-size="11.00">gp.rs, topo_ds.rs, b_rep_prim_api.rs, ... &#160;(×79)</text>
<text text-anchor="middle" x="2992" y="-30.2" font-family="Helvetica,sans-Serif" font-size="11.00">pub use ffi::X as Short; &#160;impl Short { ... }</text>
</g>
<!-- rustfmt&#45;&gt;out_mod -->
<g id="edge31" class="edge">
<title>rustfmt&#45;&gt;out_mod</title>
<path fill="none" stroke="#228b22" stroke-width="2" d="M2804.72,-114.91C2842.85,-99.66 2898.8,-77.28 2939.61,-60.96"/>
<polygon fill="#228b22" stroke="#228b22" stroke-width="2" points="2941.13,-64.12 2949.12,-57.15 2938.53,-57.62 2941.13,-64.12"/>
</g>
<!-- out_lib -->
<g id="node30" class="node">
<title>out_lib</title>
<polygon fill="#ffffff" stroke="black" points="3469.5,-57 3148.5,-57 3148.5,-21 3475.5,-21 3475.5,-51 3469.5,-57"/>
<polyline fill="none" stroke="black" points="3469.5,-57 3469.5,-51 "/>
<polyline fill="none" stroke="black" points="3475.5,-51 3469.5,-51 "/>
<text text-anchor="middle" x="3312" y="-42.2" font-family="Helvetica,sans-Serif" font-size="11.00">lib.rs</text>
<text text-anchor="middle" x="3312" y="-30.2" font-family="Helvetica,sans-Serif" font-size="11.00">pub(crate) mod ffi; &#160;pub mod gp; &#160;pub mod topo_ds; &#160;...</text>
</g>
<!-- rustfmt&#45;&gt;out_lib -->
<g id="edge32" class="edge">
<title>rustfmt&#45;&gt;out_lib</title>
<path fill="none" stroke="#666666" stroke-width="2" d="M2938.97,-119.32C3002.44,-113.05 3074.28,-103.95 3139,-91 3177.56,-83.28 3219.93,-70.86 3253.09,-60.21"/>
<polygon fill="#666666" stroke="#666666" stroke-width="2" points="3254.19,-63.53 3262.62,-57.11 3252.03,-56.87 3254.19,-63.53"/>
</g>
<!-- leg -->
<g id="node31" class="node">
<title>leg</title>
<path fill="#ffffff" stroke="transparent" d="M1961.5,-1983C1961.5,-1983 1716.5,-1983 1716.5,-1983 1710.5,-1983 1704.5,-1977 1704.5,-1971 1704.5,-1971 1704.5,-1868 1704.5,-1868 1704.5,-1862 1710.5,-1856 1716.5,-1856 1716.5,-1856 1961.5,-1856 1961.5,-1856 1967.5,-1856 1973.5,-1862 1973.5,-1868 1973.5,-1868 1973.5,-1971 1973.5,-1971 1973.5,-1977 1967.5,-1983 1961.5,-1983"/>
<polygon fill="#ffe4b5" stroke="transparent" points="1719,-1958.5 1719,-1974.5 1739,-1974.5 1739,-1958.5 1719,-1958.5"/>
<text text-anchor="start" x="1721" y="-1963.7" font-family="Helvetica,sans-Serif" font-size="11.00"> &#160;&#160;&#160;</text>
<text text-anchor="start" x="1744" y="-1963.7" font-family="Helvetica,sans-Serif" font-size="11.00">Parsing (libclang)</text>
<polygon fill="#dda0dd" stroke="transparent" points="1719,-1939.5 1719,-1955.5 1739,-1955.5 1739,-1939.5 1719,-1939.5"/>
<text text-anchor="start" x="1721" y="-1944.7" font-family="Helvetica,sans-Serif" font-size="11.00"> &#160;&#160;&#160;</text>
<text text-anchor="start" x="1744" y="-1944.7" font-family="Helvetica,sans-Serif" font-size="11.00">Symbol resolution (Pass 1)</text>
<polygon fill="#87ceeb" stroke="transparent" points="1719,-1920.5 1719,-1936.5 1739,-1936.5 1739,-1920.5 1719,-1920.5"/>
<text text-anchor="start" x="1721" y="-1925.7" font-family="Helvetica,sans-Serif" font-size="11.00"> &#160;&#160;&#160;</text>
<text text-anchor="start" x="1744" y="-1925.7" font-family="Helvetica,sans-Serif" font-size="11.00">Rust codegen → ffi.rs</text>
<polygon fill="#ffa07a" stroke="transparent" points="1719,-1901.5 1719,-1917.5 1739,-1917.5 1739,-1901.5 1719,-1901.5"/>
<text text-anchor="start" x="1721" y="-1906.7" font-family="Helvetica,sans-Serif" font-size="11.00"> &#160;&#160;&#160;</text>
<text text-anchor="start" x="1744" y="-1906.7" font-family="Helvetica,sans-Serif" font-size="11.00">C++ codegen → wrappers.hxx</text>
<polygon fill="#90ee90" stroke="transparent" points="1719,-1882.5 1719,-1898.5 1739,-1898.5 1739,-1882.5 1719,-1882.5"/>
<text text-anchor="start" x="1721" y="-1887.7" font-family="Helvetica,sans-Serif" font-size="11.00"> &#160;&#160;&#160;</text>
<text text-anchor="start" x="1744" y="-1887.7" font-family="Helvetica,sans-Serif" font-size="11.00">Rust codegen → per&#45;module re&#45;exports</text>
<polygon fill="#ffffb0" stroke="transparent" points="1719,-1863.5 1719,-1879.5 1739,-1879.5 1739,-1863.5 1719,-1863.5"/>
<text text-anchor="start" x="1721" y="-1868.7" font-family="Helvetica,sans-Serif" font-size="11.00"> &#160;&#160;&#160;</text>
<text text-anchor="start" x="1744" y="-1868.7" font-family="Helvetica,sans-Serif" font-size="11.00">Collection type codegen</text>
</g>
</g>
</svg>
